<?xml version="1.0"?><svg width="640" height="480" xmlns="http://www.w3.org/2000/svg">
 <metadata id="metadata143">image/svg+xml</metadata>
 <!--Exported from TpX drawing-->
 <title>Alaska Hawaii</title>
 <desc>Imported from usa.wmf 25/05/2008 18:05:02</desc>
 <g>
  <title>Layer 1</title>
  <g id="svg_1">
   <polyline stroke-miterlimit="10" id="polyline12" points="107.22634887695312,341.0018005371094 110.23849487304688,371.1772766113281 111.78985595703125,408.7861328125 112.61077880859375,426.4839782714844 120.1864013671875,427.1038818359375 128.49176025390625,432.3249816894531 131.50259399414062,436.7493896484375 133.05392456054688,436.7493896484375 136.06637573242188,431.5283203125 140.62985229492188,433.82843017578125 140.62985229492188,435.95281982421875 136.8873291015625,436.7493896484375 134.51504516601562,438.2538757324219 135.33599853515625,440.377197265625 136.8873291015625,441.17388916015625 139.89947509765625,439.66943359375 142.08966064453125,437.457275390625 144.462890625,435.95281982421875 149.02545166015625,438.2538757324219 150.4862060546875,441.8817138671875 153.58892822265625,444.09393310546875 158.06085205078125,447.102783203125 161.164794921875,451.4383544921875 161.8037109375,454.4472351074219 170.19927978515625,455.86279296875 171.7506103515625,466.9249572753906 168.73944091796875,465.4205322265625 164.17596435546875,459.49163818359375 161.8037109375,459.49163818359375 160.3428955078125,455.067138671875 157.3314208984375,454.4472351074219 156.60107421875,453.65057373046875 155.0496826171875,448.5183410644531 152.76800537109375,446.3061218261719 149.664306640625,444.8017272949219 147.47406005859375,449.22613525390625 148.2044677734375,452.14617919921875 151.21661376953125,452.9428405761719 153.58892822265625,454.4472351074219 150.4862060546875,459.49163818359375 148.2044677734375,458.87164306640625 146.0142822265625,455.067138671875 142.08966064453125,451.4383544921875 141.45083618164062,446.3061218261719 137.61770629882812,442.67828369140625 131.50259399414062,440.377197265625 128.49176025390625,438.2538757324219 123.92794799804688,435.2449951171875 114.16311645507812,431.5283203125 107.22634887695312,430.820556640625 98.92132568359375,430.820556640625 95.91015625,430.1127624511719 90.52447509765625,422.679443359375 86.87445068359375,421.2628173828125 82.31097412109375,422.0594787597656 82.31097412109375,424.9794921875 82.94979858398438,429.4039306640625 81.49002075195312,430.1127624511719 76.926513671875,430.1127624511719 70.90322875976562,434.53717041015625 67.80056762695312,436.7493896484375 64.05804443359375,435.95281982421875 64.7884521484375,432.3249816894531 68.62152099609375,430.1127624511719 68.62152099609375,425.68731689453125 69.35189819335938,420.55499267578125 67.80056762695312,419.7583923339844 62.598236083984375,425.68731689453125 58.034759521484375,430.1127624511719 55.022308349609375,434.53717041015625 54.20135498046875,435.95281982421875 57.213775634765625,437.457275390625 56.4833984375,439.66943359375 50.459808349609375,444.09393310546875 45.896331787109375,448.5183410644531 38.321685791015625,452.9428405761719 30.74609375,455.86279296875 24.630950927734375,458.87164306640625 20.068756103515625,460.99603271484375 17.786712646484375,457.36724853515625 20.068756103515625,454.4472351074219 24.630950927734375,452.14617919921875 31.47650146484375,447.7216796875 34.488616943359375,444.09393310546875 35.948394775390625,439.66943359375 36.770355224609375,436.7493896484375 32.937255859375,435.95281982421875 33.75823974609375,433.03277587890625 29.92510986328125,433.82843017578125 27.73492431640625,431.5283203125 24.630950927734375,432.3249816894531 22.350494384765625,433.03277587890625 20.068756103515625,437.457275390625 16.2353515625,431.5283203125 18.607635498046875,426.4839782714844 16.2353515625,419.05059814453125 11.763427734375,421.2628173828125 8.020904541015625,413.9183654785156 8.020904541015625,407.28173828125 4.918182373046875,400.64501953125 11.763427734375,399.140625 11.03302001953125,394.7161865234375 14.774566650390625,391.7950439453125 29.194732666015625,393.2995300292969 31.47650146484375,391.7950439453125 31.47650146484375,382.2384033203125 30.74609375,380.8228759765625 23.80999755859375,381.4418029785156 23.17144775390625,377.81396484375 17.786712646484375,380.8228759765625 17.786712646484375,377.1061706542969 10.212066650390625,375.6017761230469 11.03302001953125,371.97393798828125 13.223236083984375,369.0528869628906 10.212066650390625,365.24835205078125 14.774566650390625,364.6284484863281 17.786712646484375,363.12396240234375 21.6201171875,363.12396240234375 23.80999755859375,360.9117736816406 26.183563232421875,363.12396240234375 24.630950927734375,366.04400634765625 23.80999755859375,369.0528869628906 29.194732666015625,368.25732421875 34.488616943359375,366.7528381347656 37.499786376953125,362.327392578125 33.75823974609375,361.61956787109375 28.373779296875,354.275146484375 24.630950927734375,348.43511962890625 24.630950927734375,343.2139892578125 28.373779296875,341.70953369140625 32.937255859375,339.58514404296875 36.770355224609375,341.0018005371094 42.884185791015625,330.7362060546875 49.63787841796875,331.44403076171875 55.661163330078125,329.9396057128906 61.046875,327.8162841796875 66.33978271484375,331.44403076171875 71.63363647460938,333.6562194824219 79.93869018554688,335.8685302734375 100.47271728515625,340.29400634765625 105.03616333007812,341.70953369140625 106.58749389648438,346.134033203125 107.22634887695312,341.0018005371094 " fill="#cccccc" stroke-width="0.282222" stroke="#cccccc"/>
   <polyline stroke-miterlimit="10" id="polyline14" points="-25.70892333984375,471.368408203125 -22.235870361328125,466.9249572753906 -23.9195556640625,461.63507080078125 -27.498260498046875,463.327880859375 -30.02410888671875,469.56988525390625 -34.4443359375,469.56988525390625 " fill="#cccccc" stroke-width="0.282222" stroke="#cccccc"/>
   <polyline stroke-miterlimit="10" id="polyline16" points="-2.028167724609375,460.7886962890625 -5.501220703125,463.327880859375 " fill="#cccccc" stroke-width="0.282222" stroke="#cccccc"/>
   <polyline stroke-miterlimit="10" id="polyline18" points="71.434814453125,439.62890625 71.434814453125,446.7173767089844 67.01458740234375,450.2086181640625 59.12103271484375,452.00726318359375 57.437042236328125,448.41009521484375 60.9100341796875,445.76513671875 66.17245483398438,443.96661376953125 67.8564453125,438.6767578125 70.48764038085938,438.6767578125 " fill="#cccccc" stroke-width="0.282222" stroke="#cccccc"/>
   <polyline stroke-miterlimit="10" id="polyline20" points="-110.5234375,427.16021728515625 -116.62797546386719,420.07183837890625 " fill="#cccccc" stroke-width="0.282222" stroke="#cccccc"/>
   <polyline stroke-miterlimit="10" id="polyline22" points="-60.636138916015625,469.3734130859375 -62.4251708984375,470.3255615234375 " fill="#cccccc" stroke-width="0.282222" stroke="#cccccc"/>
   <polyline stroke-miterlimit="10" id="polyline26" points="-74.63394165039062,463.34295654296875 -80.843505859375,458.0531005859375 " fill="#cccccc" stroke-width="0.282222" stroke="#cccccc"/>
   <polyline stroke-miterlimit="10" id="polyline28" points="-90.42111206054688,451.81103515625 -96.525634765625,448.3197021484375 -95.6834716796875,448.3197021484375 " fill="#cccccc" stroke-width="0.282222" stroke="#cccccc"/>
   <polyline stroke-miterlimit="10" id="polyline30" points="-88.63204956054688,459.7458190917969 -91.3682861328125,457.10089111328125 " fill="#cccccc" stroke-width="0.282222" stroke="#cccccc"/>
  </g>
  <g id="svg_2">
   <polyline stroke-miterlimit="10" id="polyline48" points="555.03759765625,419.4217834472656 557.9058837890625,416.9318542480469 555.03759765625,413.68768310546875 547.7366333007812,413.68768310546875 547.041259765625,416.9318542480469 554.25537109375,418.7427673339844 555.03759765625,419.4217834472656 " fill="#cccccc" stroke-width="0.282222" stroke="#cccccc"/>
   <polyline stroke-miterlimit="10" id="polyline50" points="599.7996826171875,430.7389221191406 591.8033447265625,428.1737060546875 585.2846069335938,425.683837890625 587.45751953125,431.26708984375 591.8033447265625,435.7184753417969 594.6715698242188,439.4908447265625 599.7996826171875,437.0009460449219 600.4080810546875,433.22857666015625 599.0173950195312,431.94610595703125 599.7996826171875,430.7389221191406 " fill="#cccccc" stroke-width="0.282222" stroke="#cccccc"/>
   <polyline stroke-miterlimit="10" id="polyline52" points="612.750244140625,447.0356140136719 619.9642944335938,448.3180847167969 622.1372680664062,451.4114990234375 626.3961181640625,455.10833740234375 631.5242309570312,457.070068359375 630.7420043945312,461.4461364746094 623.5278930664062,464.61480712890625 619.1820678710938,467.70819091796875 614.227783203125,467.1047058105469 611.968017578125,470.8770751953125 607.6221923828125,471.4805603027344 604.05859375,466.42547607421875 603.3632202148438,457.67376708984375 601.1903076171875,454.5803527832031 604.05859375,448.3180847167969 607.6221923828125,445.7528991699219 612.750244140625,447.0356140136719 " fill="#cccccc" stroke-width="0.282222" stroke="#cccccc"/>
   <polyline stroke-miterlimit="10" id="polyline54" points="492.1099548339844,411.1980285644531 491.41461181640625,411.87701416015625 " fill="#cccccc" stroke-width="0.282222" stroke="#cccccc"/>
   <polyline stroke-miterlimit="10" id="polyline56" points="519.5755615234375,408.1046447753906 523.2261352539062,404.93572998046875 521.74853515625,402.446044921875 518.0980224609375,401.1633605957031 510.8839111328125,402.446044921875 508.0157165527344,406.21844482421875 513.1437683105469,406.8219299316406 513.7521667480469,408.7080993652344 518.8802490234375,408.1046447753906 522.44384765625,408.1046447753906 519.5755615234375,408.1046447753906 " fill="#cccccc" stroke-width="0.282222" stroke="#cccccc"/>
   <polyline stroke-miterlimit="10" id="polyline58" points="503.6698913574219,407.4254150390625 499.32403564453125,409.915283203125 " fill="#cccccc" stroke-width="0.282222" stroke="#cccccc"/>
   <polyline stroke-miterlimit="10" id="polyline60" points="581.6340942382812,426.9665222167969 573.8115844726562,423.19415283203125 " fill="#cccccc" stroke-width="0.282222" stroke="#cccccc"/>
  </g>
 </g>
</svg>