<?xml version="1.0" encoding="UTF-8" standalone="no"?>
<!-- Created with Inkscape (http://www.inkscape.org/) -->

<svg
   xmlns:svg="http://www.w3.org/2000/svg"
   xmlns="http://www.w3.org/2000/svg"
   version="1.1"
   width="1364.5018"
   height="880.59308"
   id="svg3850">
  <defs
     id="defs3852" />
  <g
     transform="translate(415.69748,67.105259)"
     id="layer1">
    <path
       d="m -243.32722,-67.079438 c -14.43206,5.555095 -26.26514,16.764246 -41.68688,20.172174 -4.03615,8.657518 -7.62051,18.197136 -15.86924,23.756536 0.44751,5.288308 -0.80896,11.351154 0.62823,16.2134715 7.26336,7.65493169 16.94498,12.1041696 26.98373,14.9699266 5.49055,5.1118949 10.30985,11.6824859 16.22638,15.8692439 13.53706,0.202241 26.72987,3.136842 39.89256,5.826179 6.2952,1.703968 9.59126,-5.314129 14.27715,-8.235827 5.64976,-4.913952 11.38128,-9.771971 17.06546,-14.7246549 -0.67986,-6.25217726 -2.66351,-12.7237965 -2.46558,-18.9157261 4.31154,-8.816722 8.61448,-17.629145 12.91742,-26.445866 -5.26679,-4.931169 -3.98452,-13.717771 -7.97764,-18.111076 -5.33135,-3.184171 -10.11622,-8.15837 -16.77286,-7.43978 -8.7737,-0.985369 -17.54739,-1.96644 -26.29096,-2.960422 -2.84855,4.965595 -6.18764,7.620506 -11.02414,3.050781 -1.98366,-0.972458 -3.94579,-2.013769 -5.90363,-3.02496 z m -128.03397,57.7325341 c -7.28057,2.723763 -11.97939,9.05338828 -15.86924,15.2367136 -7.15579,4.0490615 -15.77888,6.3296253 -20.17218,13.8425553 -3.53702,3.722044 -6.89331,7.555961 -6.90191,12.999181 -0.98538,4.849414 -2.96043,9.827912 0.87349,13.975945 3.31757,8.876969 10.12912,4.926871 11.92345,-1.70396 3.31756,-4.931169 5.82617,-10.95959 9.77197,-15.094712 6.26938,-2.061106 12.54737,-4.036159 18.82536,-6.006905 1.22634,-6.901916 1.34683,-14.268546 3.25303,-20.8864657 3.87264,-3.89416479 7.173,-7.6205062 0.52495,-10.4905691 -0.7358,-0.6626572 -1.48021,-1.2865822 -2.22892,-1.8717831 z M 152.38834,75.877119 c -6.53185,1.975053 -14.75053,0.757322 -19.09647,6.876102 -7.43974,4.036151 -4.98281,13.085233 -11.94496,16.932061 -4.4105,3.446658 -8.33912,8.339108 -13.17992,10.847718 -10.490551,0 -21.06715,0 -31.643828,0 3.407968,4.2513 8.56716,7.97765 10.877875,12.54737 0.17209,4.75045 -3.661803,10.71431 1.166104,14.11794 4.931145,5.64976 10.593791,12.00951 11.316696,19.41487 3.674703,4.03615 8.962993,7.26336 11.587803,11.73411 0.23672,5.15062 1.88471,16.70832 8.33911,15.05169 8.3778,-0.80895 19.27287,-3.71774 9.59126,-13.12828 -2.06109,-6.9019 10.46907,-9.27713 7.43982,-17.20314 -2.16011,-12.54738 3.85539,-22.14293 17.65927,-21.83312 12.23756,-6.71689 21.24792,-1.70396 23.84256,11.55339 2.06109,5.46904 4.19534,10.84771 9.2341,14.16959 10.1291,8.97593 20.52931,19.81072 34.33319,21.9622 -3.2229,-4.40622 -9.72466,-7.62051 -8.08097,-13.95444 1.76849,-5.46903 -3.58006,-7.66353 -6.95356,-10.71432 -1.72544,-3.04218 3.35201,-9.69021 1.34687,-11.92344 -4.20403,0.4432 -11.31248,-2.12996 -9.05342,4.75044 0.039,10.66699 -7.43974,5.7057 -10.75737,0.20654 -3.09379,-4.57402 -14.5353,-13.60589 -8.69618,-18.41658 6.53614,-5.78745 -0.98542,-11.01122 -4.75046,-15.28404 -7.1945,-7.80123 -14.96991,-15.688518 -17.30211,-26.346895 -1.48028,-3.937195 -3.44236,-7.616208 -5.27541,-11.359766 z M 400.53452,199.56942 c -7.85714,3.27024 -3.49831,17.81848 -15.71859,12.19453 -12.81846,-1.37694 -25.86497,-2.27625 -38.54573,-4.389 -4.83221,-1.88468 -9.35462,-6.26937 -14.79352,-3.6747 -6.18767,-0.52066 -3.13686,7.26336 -4.3933,11.20485 -4.39331,5.28832 -8.87695,10.49057 -13.27026,15.78318 0.0861,6.18763 2.47413,9.5052 8.90704,7.80553 19.72466,0.15922 39.53545,-0.27538 59.20845,0.27109 13.53707,4.20827 27.05264,8.61449 40.71014,12.46132 6.0327,-5.80897 15.68851,-4.21258 22.32368,-8.15838 7.26335,-6.90192 14.43206,-13.72207 21.60499,-20.71005 -4.38463,-2.96042 -8.33903,-7.58608 -12.99915,-9.41483 -16.04566,2.0611 -32.60767,6.54477 -48.61457,2.0611 -1.51036,-5.08176 -2.95617,-10.27541 -4.41918,-15.43464 z m 91.06313,52.5432 c -5.46906,3.03357 -12.05249,4.93117 -16.94925,8.51552 -4.21262,7.08263 -6.72551,15.06028 -8.87695,23.03794 6.94488,1.34682 2.03952,6.81585 4.81493,10.57232 5.40021,5.93376 8.27026,14.79351 16.47167,17.33654 7.59472,3.82532 15.15067,7.62051 22.68083,11.51897 3.85539,-2.1988 7.43974,-10.57232 11.56624,-5.11189 5.28837,2.1988 5.11191,7.52154 5.82621,12.28059 1.88471,11.55339 3.6747,23.03794 3.61875,34.70751 4.1093,2.7797 7.80127,7.08264 12.28062,8.85975 9.41479,-1.45439 19.27286,-1.16609 28.24016,-3.85543 7.19458,-2.6377 13.96737,-7.27627 21.39851,-8.76509 5.91657,-0.043 12.19458,1.1661 17.85293,0.27108 5.65835,-5.01722 13.58865,-6.36404 19.99147,-8.31327 6.00691,-6.10157 11.92347,-12.24187 17.83995,-18.37786 -0.4475,-4.43633 0.80895,-9.59125 -0.55933,-13.71777 -3.73925,-3.31757 -6.72551,-8.3391 -10.84771,-10.66699 -4.57407,-0.46902 -10.54651,1.88469 -12.81846,-3.49828 -1.88471,-7.43979 -8.77801,1.96644 -10.66702,-3.13685 -2.42255,-3.31757 -2.83566,-9.77198 -8.33911,-7.97765 -5.2883,-0.24527 -8.3692,-6.36405 -12.7883,-9.11363 -4.57407,-3.21859 -7.97766,-8.68333 -13.17991,-10.49057 -6.18767,-0.62822 -12.64208,-2.62479 -18.73503,-2.54733 -12.10415,6.0069 -24.77631,10.84771 -37.74108,14.79351 -3.56278,-10.66699 -12.65926,-17.1214 -15.86919,-27.87875 -3.39507,-4.03616 -9.91833,-5.28832 -14.43206,-8.21862 l -0.7358,-0.36144 h -0.0904 v 0.0431 h -0.0302 l 0.0772,0.11187 0,0 z M 384.59648,280.4776 c -3.56287,3.63167 -7.14722,7.26336 -10.75307,10.84771 6.9019,5.64976 13.71776,11.38558 20.58097,17.1214 0.41741,7.08263 -2.62481,14.96992 2.22029,20.97683 1.16611,6.72549 6.6179,4.93117 11.66526,4.03615 8.33911,-1.42858 17.19887,-3.23581 24.65158,-7.15149 2.96039,-4.75044 9.50514,-8.15837 7.96039,-14.43205 1.70403,-5.64976 -2.59894,-8.69624 -6.32959,-12.10417 -7.16871,-6.65235 -14.19112,-14.53103 -23.07667,-18.55858 -9.00606,-0.33133 -17.96046,-0.55078 -26.91916,-0.7358 z m 110.27144,86.25242 c -10.06463,6.48023 -20.08182,13.025 -29.85384,19.99146 3.6747,2.53012 6.0069,10.25391 10.80902,8.63169 10.30979,-4.21257 22.41402,-1.16609 32.34516,-6.26077 -0.62818,-7.43979 0.55082,-15.86924 -4.03615,-22.32365 -3.11528,-0.0431 -6.20486,-0.0431 -9.26419,-0.0431 z m 183.06423,85.10785 c -3.13685,3.6747 -7.81416,6.72552 -10.06884,10.84771 0.57223,7.80119 -1.1661,16.04566 0.98534,23.57583 4.21254,11.54044 10.8477,21.94495 18.55855,31.46736 -0.80895,4.92255 2.24187,11.38563 -2.96039,14.43206 -6.0069,6.605 -14.43206,11.56632 -16.94495,20.58097 -2.59902,3.0938 -2.88303,11.65666 -6.90198,11.3124 -5.22805,-4.14369 -8.40359,0.34426 -11.7427,4.3933 -6.0413,7.08267 -14.247,12.81847 -16.78147,22.21177 -4.8408,6.36406 -0.81325,13.53707 4.01896,18.73502 7.08267,3.13686 -4.57399,9.23411 3.49831,10.30987 4.04905,2.0611 9.46645,2.85715 10.30979,8.20141 4.52241,11.06286 6.36406,23.00352 9.19542,34.60852 5.2883,0.80895 7.80119,3.55426 6.39415,8.97597 0.75299,7.74094 6.55772,13.6575 7.80127,22.50007 4.56539,6.72543 0.62818,14.61274 0.27103,21.96214 -2.59894,17.79267 -4.66433,35.69288 -4.38901,53.6964 7.11713,2.40966 7.26343,12.46131 13.35638,14.89248 7.62051,2.59902 16.58351,2.59902 22.3236,8.99746 4.93123,5.82622 14.69026,4.61706 18.735,10.71001 3.13686,3.2186 4.02756,10.49063 9.59126,9.05342 4.91825,-0.35286 7.23327,-6.63087 11.0284,-9.41488 7.97766,-6.91049 10.66702,-17.48279 18.28753,-24.75047 2.21169,-4.21262 -1.87612,-10.8477 3.41656,-13.89422 4.4105,-4.03615 8.0766,-9.77195 12.89591,-12.90881 5.34426,1.34679 8.9501,-1.70394 12.21599,-5.64975 3.49831,-2.7797 6.36406,-7.1773 10.20663,-9.05342 5.67124,1.57062 8.8124,-3.31754 12.56025,-6.65666 4.93114,-4.03615 9.2341,-9.59126 14.43206,-12.68076 11.7341,-0.0772 23.75651,1.16611 35.23248,0.27541 14.07491,-10.16786 30.06462,-17.30211 45.45193,-25.05172 13.18421,-12.57314 26.44587,-25.14637 39.70324,-37.72389 -0.84772,-4.3933 2.58604,-11.56631 -3.6919,-12.315 -9.15236,-4.4105 -19.41916,-7.08259 -26.62664,-14.61275 -4.30288,-4.08781 -10.30978,-7.3451 -13.61451,-11.92347 -0.41733,-5.8735 0.60677,-12.28054 -0.62819,-17.83995 -3.31754,-2.59902 -4.57407,-10.12918 -9.77194,-8.15843 -6.54483,0.95955 -13.02932,1.81586 -19.59564,2.67217 0.91657,-11.02847 1.83305,-21.96223 2.75392,-32.93474 -16.66533,-18.78231 -35.54658,-36.01557 -58.5372,-46.65242 -22.52594,-11.07583 -45.7704,-24.44503 -71.62677,-24.19549 -10.95095,-8.24439 -23.03791,-14.70739 -35.30994,-20.73587 1.96216,-6.29083 -5.5593,-6.67815 -9.48362,-9.23411 -7.87434,-3.83819 -16.03706,-6.46729 -24.54827,-8.02494 z"
       id="HI_2"
       style="fill:#CCCCCC" />
  </g>
</svg>
